HIERARCHY
ROOT Hips
{
 OFFSET 0.000000 0.000000 0.000000
 CHANNELS 6 Xposition Yposition Zposition Yrotation Xrotation Zrotation
 JOINT Chest
 {
  OFFSET 0.000000 9.585900 0.002600
  CHANNELS 3 Yrotation Xrotation Zrotation
  JOINT Chest2
  {
   OFFSET 0.000000 9.601200 -0.005300
   CHANNELS 3 Yrotation Xrotation Zrotation
   JOINT Chest3
   {
    OFFSET 0.000000 9.561800 0.000000
    CHANNELS 3 Yrotation Xrotation Zrotation
    JOINT Chest4
    {
     OFFSET 0.000000 9.552100 0.000000
     CHANNELS 3 Yrotation Xrotation Zrotation
     JOINT Neck
     {
      OFFSET 0.000000 14.453000 0.000000
      CHANNELS 3 Yrotation Xrotation Zrotation
      JOINT Head
      {
       OFFSET 0.000000 8.936500 -0.011300
       CHANNELS 3 Yrotation Xrotation Zrotation
       End Site
       {
        OFFSET 0.000000 17.073600 -0.006000
       }
      }
     }
     JOINT RightCollar
     {
      OFFSET -2.921100 9.558500 0.000000
      CHANNELS 3 Yrotation Xrotation Zrotation
      JOINT RightShoulder
      {
       OFFSET -13.519700 0.000000 0.000000
       CHANNELS 3 Yrotation Xrotation Zrotation
       JOINT RightElbow
       {
        OFFSET 0.000000 -29.696600 0.000000
        CHANNELS 3 Yrotation Xrotation Zrotation
        JOINT RightWrist
        {
         OFFSET 0.000000 -24.004700 0.000000
         CHANNELS 3 Yrotation Xrotation Zrotation
         End Site
         {
          OFFSET 0.000000 -17.728500 0.000000
         }
        }
       }
      }
     }
     JOINT LeftCollar
     {
      OFFSET 2.921100 9.558500 0.000000
      CHANNELS 3 Yrotation Xrotation Zrotation
      JOINT LeftShoulder
      {
       OFFSET 13.519700 0.000000 0.000000
       CHANNELS 3 Yrotation Xrotation Zrotation
       JOINT LeftElbow
       {
        OFFSET 0.000000 -29.696600 0.000000
        CHANNELS 3 Yrotation Xrotation Zrotation
        JOINT LeftWrist
        {
         OFFSET 0.000000 -24.004700 0.000000
         CHANNELS 3 Yrotation Xrotation Zrotation
         End Site
         {
          OFFSET 0.000000 -17.728500 0.000000
         }
        }
       }
      }
     }
    }
   }
  }
 }
 JOINT RightHip
 {
  OFFSET -7.771700 -0.012900 -0.001300
  CHANNELS 3 Yrotation Xrotation Zrotation
  JOINT RightKnee
  {
   OFFSET 0.000000 -40.869800 0.001200
   CHANNELS 3 Yrotation Xrotation Zrotation
   JOINT RightAnkle
   {
    OFFSET 0.000000 -39.717900 0.002100
    CHANNELS 3 Yrotation Xrotation Zrotation
    JOINT RightToe
    {
     OFFSET 0.000000 -4.965400 11.033500
     CHANNELS 3 Yrotation Xrotation Zrotation
     End Site
     {
      OFFSET 0.000000 -1.423100 5.872300
     }
    }
   }
  }
 }
 JOINT LeftHip
 {
  OFFSET 7.771700 -0.012900 -0.001300
  CHANNELS 3 Yrotation Xrotation Zrotation
  JOINT LeftKnee
  {
   OFFSET 0.000000 -40.869800 0.001200
   CHANNELS 3 Yrotation Xrotation Zrotation
   JOINT LeftAnkle
   {
    OFFSET 0.000000 -39.717900 0.002100
    CHANNELS 3 Yrotation Xrotation Zrotation
    JOINT LeftToe
    {
     OFFSET 0.000000 -4.965400 11.033500
     CHANNELS 3 Yrotation Xrotation Zrotation
     End Site
     {
      OFFSET 0.000000 -1.423100 5.872300
     }
    }
   }
  }
 }
}
MOTION
Frames: 16
Frame Time: 0.008333
-37.176450 55.257749 0.029301 -176.568277 -17.810425 -1.609825 0.295598 16.760237 0.483930 0.033216 1.735248 0.056928 0.070016 2.946792 0.117357 0.327824 14.785437 0.507886 0.905143 12.934558 4.690786 -0.117827 -12.063785 4.786121 0.330401 0.794015 1.981460 1.060203 -7.752338 -7.206721 -75.136108 -50.648315 105.838940 -19.319622 -6.438778 -3.006422 -5.549448 -2.159124 2.377286 2.494727 -10.745079 7.290201 57.176488 -48.559390 -100.498066 9.837862 -7.996904 13.940491 0.542102 -57.356996 9.899404 -81.268088 87.819961 -86.495251 -11.159890 -20.950104 13.474817 0.046156 0.130467 -0.331650 8.967966 -53.715572 -6.177658 109.661251 77.220705 106.037873 -8.007382 -23.748977 2.571566 0.014510 0.071682 -0.002964
-37.175489 55.256594 0.029458 -176.574917 -17.833741 -1.610910 0.284904 16.743290 0.465469 0.043573 1.753120 0.063862 0.045751 2.868099 0.084505 0.346219 14.822876 0.516344 0.897100 12.877414 4.682117 -0.124564 -12.123416 4.779364 0.338171 0.818099 1.993042 1.017726 -7.759093 -7.181538 -75.336161 -50.884383 105.934882 -19.140587 -6.302132 -2.964805 -5.520833 -2.137761 2.392768 2.665349 -10.694073 7.234654 57.210684 -48.646066 -100.511178 9.824180 -8.005025 13.956804 0.502214 -57.329696 9.907040 -81.398720 87.798413 -86.622859 -11.139825 -20.987949 13.551129 0.044968 0.119082 -0.331708 8.938343 -53.701286 -6.159703 109.673653 77.210486 106.050725 -8.001343 -23.748173 2.561354 0.016437 0.074181 -0.003886
-37.173608 55.254874 0.030275 -176.587954 -17.856314 -1.617184 0.290363 16.745762 0.465406 0.043750 1.750851 0.061994 0.034538 2.841047 0.076307 0.345290 14.809097 0.504736 0.889708 12.819217 4.669123 -0.129583 -12.184231 4.767629 0.358639 0.868066 2.010262 0.959966 -7.791427 -7.166548 -75.546427 -51.142354 106.035452 -18.957394 -6.160060 -2.918629 -5.480758 -2.156197 2.395891 2.770201 -10.601372 7.201812 57.295114 -48.735171 -100.522489 9.807465 -8.015596 13.973744 0.484438 -57.306795 9.921325 -81.561296 87.772560 -86.782965 -11.149067 -21.016478 13.659225 0.048352 0.108470 -0.340847 8.890509 -53.696501 -6.127299 109.713158 77.195812 106.089965 -7.980556 -23.739630 2.541126 0.014727 0.068920 -0.005428
-37.172451 55.253358 0.029444 -176.618735 -17.892407 -1.615073 0.293761 16.732344 0.447474 0.050865 1.757104 0.064389 0.045003 2.859239 0.082667 0.330301 14.771088 0.485724 0.884322 12.760056 4.653171 -0.131754 -12.246170 4.752224 0.366769 0.880653 2.007923 0.906114 -7.786677 -7.134166 -75.766502 -51.418138 106.145008 -18.772445 -6.016943 -2.874132 -5.452911 -2.103542 2.407802 2.843490 -10.581598 7.174706 57.420817 -48.815790 -100.525537 9.792256 -8.025391 13.985963 0.489033 -57.271210 9.930845 -81.743672 87.750518 -86.968356 -11.165865 -21.044682 13.792250 0.051428 0.100466 -0.362418 8.888670 -53.670654 -6.105016 109.738056 77.189257 106.115570 -7.972541 -23.728656 2.549233 0.012198 0.059996 -0.019106
-37.172364 55.250830 0.030683 -176.638494 -17.916878 -1.608794 0.282603 16.706535 0.420292 0.058158 1.764678 0.068700 0.056362 2.877301 0.088212 0.316497 14.733288 0.465707 0.880803 12.700632 4.635728 -0.131524 -12.308464 4.734804 0.372541 0.893301 2.007998 0.848107 -7.783342 -7.103050 -75.995051 -51.709527 106.263464 -18.592002 -5.876123 -2.837528 -5.424037 -2.084193 2.415307 2.861857 -10.534483 7.174453 57.584296 -48.878854 -100.518095 9.778516 -8.029912 13.993080 0.460152 -57.244605 9.942083 -81.934448 87.734952 -87.173780 -11.181384 -21.080296 13.941903 0.044238 0.098047 -0.398423 8.893084 -53.652816 -6.100257 109.746556 77.183757 106.125911 -7.964827 -23.727110 2.546751 0.010333 0.060748 -0.024142
-37.171663 55.248119 0.031596 -176.657658 -17.943383 -1.604934 0.279519 16.692415 0.401304 0.038365 1.727464 0.053771 0.053061 2.855870 0.080216 0.348712 14.770359 0.472503 0.877138 12.641404 4.617757 -0.131339 -12.370527 4.716821 0.374130 0.908556 2.012614 0.785070 -7.782373 -7.072083 -76.232399 -52.010674 106.388299 -18.418135 -5.735953 -2.808820 -5.403564 -2.096102 2.427920 3.023883 -10.425648 7.103616 57.627601 -48.995379 -100.536536 9.765669 -8.033477 14.000904 0.431509 -57.216226 9.965504 -82.201210 87.702538 -87.462568 -11.200748 -21.116557 14.117184 0.043222 0.098328 -0.437577 8.900549 -53.629968 -6.091327 109.744952 77.183404 106.129543 -7.964442 -23.731125 2.544511 0.018871 0.069169 -0.021417
-37.170396 55.244918 0.033265 -176.676024 -17.964143 -1.602081 0.288078 16.692903 0.394379 0.043063 1.736271 0.056863 0.044432 2.830636 0.070753 0.345873 14.746345 0.454920 0.873823 12.582124 4.600205 -0.130968 -12.432494 4.699293 0.342281 0.880479 1.997151 0.743569 -7.736400 -7.017372 -76.471881 -52.311414 106.513816 -18.252282 -5.597890 -2.779899 -5.384548 -2.068853 2.445331 3.089995 -10.374258 7.075149 57.742041 -49.057543 -100.539838 9.754381 -8.041931 14.008599 0.404230 -57.194985 9.989936 -82.441516 87.691941 -87.729310 -11.226854 -21.154387 14.300875 0.054625 0.118811 -0.538420 8.903356 -53.617108 -6.084736 109.751314 77.176229 106.138704 -7.955532 -23.731575 2.539514 0.014343 0.073120 -0.020045
-37.168737 55.241666 0.034516 -176.691233 -17.985754 -1.599924 0.294453 16.694785 0.387479 0.034488 1.713498 0.048318 0.048010 2.825943 0.066443 0.350469 14.748756 0.450649 0.865838 12.508664 4.576723 -0.130647 -12.494792 4.682696 0.344330 0.902304 2.007625 0.668577 -7.754689 -6.995147 -76.707019 -52.607273 106.636557 -18.098791 -5.461208 -2.749433 -5.370119 -2.039941 2.459824 3.130024 -10.346122 7.054979 57.862070 -49.090459 -100.530517 9.746689 -8.057941 14.012485 0.370002 -57.172227 10.015310 -82.718327 87.685315 -88.038788 -11.223646 -21.201574 14.481656 0.056504 0.112016 -0.537568 8.908785 -53.601408 -6.083250 109.750860 77.166021 106.141931 -7.944829 -23.735838 2.537313 0.002322 0.079213 -0.021178
-37.167197 55.238370 0.035523 -176.696924 -18.006640 -1.597272 0.283931 16.676692 0.364694 0.025270 1.669043 0.029795 0.058760 2.851216 0.077012 0.367563 14.791984 0.467647 0.846502 12.406991 4.539642 -0.130709 -12.557289 4.666123 0.336878 0.894656 2.005310 0.636597 -7.751990 -6.979840 -77.000146 -52.896894 106.779580 -17.962544 -5.318788 -2.720104 -5.363228 -2.041527 2.463857 3.211060 -10.303637 7.010121 57.942544 -49.127216 -100.533413 9.747299 -8.078075 14.014002 0.326927 -57.148957 10.039388 -83.150868 87.643136 -88.506020 -11.189147 -21.263007 14.658917 0.064863 0.111702 -0.523508 8.911854 -53.582562 -6.080834 109.752758 77.163862 106.145275 -7.946633 -23.746779 2.542189 -0.000463 0.090937 -0.021351
-37.165064 55.235087 0.036335 -176.698998 -18.026235 -1.596765 0.271695 16.638509 0.336542 0.028076 1.685536 0.036665 0.065764 2.869358 0.084284 0.361259 14.759641 0.448361 0.840909 12.347572 4.522317 -0.128672 -12.619299 4.647485 0.326704 0.910086 2.012632 0.552653 -7.756446 -6.948153 -77.195569 -53.161905 106.882105 -17.843817 -5.171823 -2.689675 -5.345846 -2.021773 2.484132 3.347567 -10.233378 6.933860 57.962014 -49.171558 -100.542456 9.755412 -8.099466 14.015595 0.288879 -57.126851 10.061598 -83.577347 87.603487 -88.955291 -11.199305 -21.332553 14.829898 0.067177 0.128921 -0.529896 8.913108 -53.566096 -6.077196 109.748506 77.159874 106.145448 -7.950764 -23.755463 2.537982 -0.001641 0.101213 -0.015721
-37.161856 55.232463 0.035206 -176.703263 -18.055606 -1.600406 0.271998 16.647780 0.331198 0.023825 1.675378 0.033531 0.070033 2.875823 0.085787 0.350744 14.725854 0.428192 0.842635 12.293756 4.505150 -0.124421 -12.680355 4.626147 0.306715 0.897043 2.008449 0.480715 -7.727097 -6.908142 -77.373367 -53.395838 106.970094 -17.739557 -5.028278 -2.658380 -5.322353 -1.992820 2.501715 3.442628 -10.181013 6.883224 58.005195 -49.183875 -100.546748 9.766623 -8.126141 14.020117 0.272153 -57.096268 10.073734 -84.020387 87.561659 -89.404686 -11.212442 -21.409816 14.986781 0.072047 0.147929 -0.522785 8.907779 -53.539939 -6.061888 109.747699 77.156933 106.148396 -7.951688 -23.762318 2.535506 0.000545 0.107955 -0.012941
-37.162852 55.228924 0.036876 -176.689639 -18.066372 -1.581520 0.237547 16.622680 0.289324 0.034701 1.702050 0.043438 0.058749 2.842685 0.073045 0.350151 14.716676 0.417893 0.855758 12.291236 4.506025 -0.119569 -12.793412 4.582859 0.297511 0.900267 2.006827 0.423810 -7.710386 -6.882466 -77.556639 -53.592727 107.051902 -17.645445 -4.889628 -2.631045 -5.299276 -1.969800 2.514452 3.497306 -10.137936 6.857878 58.074153 -49.172766 -100.548318 9.778878 -8.159412 14.025426 0.237021 -57.081884 10.058616 -84.406731 87.531873 -89.809236 -11.245229 -21.487702 15.121449 0.081479 0.166385 -0.502623 8.927079 -53.526938 -6.097713 109.754978 77.161843 106.156834 -7.949424 -23.791593 2.533813 0.010251 0.136854 -0.007264
-37.160978 55.228214 0.030376 -176.680320 -18.126275 -1.579380 0.210360 16.610676 0.256096 0.042820 1.735763 0.052711 0.058938 2.839162 0.071242 0.335624 14.661448 0.385256 0.882676 12.334908 4.527384 -0.112710 -12.902516 4.538201 0.301195 0.960452 2.028970 0.405330 -7.688972 -6.863346 -77.768859 -53.762482 107.136403 -17.557884 -4.749657 -2.608198 -5.270064 -1.893892 2.539622 3.512684 -10.109608 6.855784 58.115285 -49.162772 -100.548684 9.794709 -8.239393 14.064247 0.180106 -57.016458 10.072485 -85.116358 87.493414 -90.512440 -11.304976 -21.588893 15.237267 0.080081 0.188570 -0.478306 8.918452 -53.467905 -6.091354 109.754803 77.158313 106.164702 -7.956672 -23.791824 2.522010 0.017717 0.136094 0.002613
-37.156151 55.225294 0.031097 -176.689601 -18.139433 -1.584648 0.214991 16.596748 0.254947 0.031502 1.686846 0.037950 0.061174 2.843588 0.070820 0.351138 14.709568 0.396659 0.862244 12.180217 4.461380 -0.106254 -12.879401 4.543307 0.296236 0.965142 2.029311 0.322870 -7.708026 -6.851691 -77.882449 -53.894805 107.183396 -17.477663 -4.606517 -2.585766 -5.250739 -1.922138 2.527662 3.572130 -10.049716 6.841163 58.101797 -49.174192 -100.553683 9.798884 -8.312142 14.097286 0.128261 -57.001353 10.106246 -85.474712 87.502190 -90.879873 -11.363596 -21.682130 15.351166 0.068651 0.207992 -0.458203 8.923320 -53.462785 -6.066708 109.802957 77.168689 106.218009 -7.973549 -23.792970 2.521086 0.025450 0.136409 0.011411
-37.152706 55.222425 0.032110 -176.700502 -18.150722 -1.578958 0.222427 16.598852 0.249331 0.028367 1.676491 0.035288 0.052507 2.812328 0.061677 0.362914 14.738115 0.400007 0.850474 12.081154 4.417924 -0.098439 -12.908394 4.525549 0.292530 0.968807 2.029232 0.240778 -7.723986 -6.838768 -77.980240 -54.001425 107.222209 -17.404824 -4.464766 -2.564910 -5.239409 -1.923795 2.523799 3.636696 -10.019839 6.818514 58.140321 -49.170799 -100.549920 9.783559 -8.334554 14.086002 0.105287 -56.990441 10.104513 -85.911346 87.522158 -91.327198 -11.369242 -21.786731 15.451727 0.066886 0.223952 -0.437517 8.937375 -53.453745 -6.066057 109.802470 77.169037 106.218178 -7.971762 -23.797766 2.519614 0.023302 0.142397 0.011569
-37.150267 55.221993 0.026304 -176.699596 -18.204740 -1.571028 0.207476 16.614024 0.228659 0.034769 1.695410 0.039073 0.047437 2.791888 0.057054 0.360715 14.732637 0.389635 0.854805 12.032055 4.392881 -0.088872 -12.959659 4.495153 0.286989 0.954471 2.014627 0.220323 -7.676090 -6.807713 -78.135711 -54.095363 107.274634 -17.340125 -4.327191 -2.549108 -5.217577 -1.900537 2.524956 3.690398 -9.998034 6.799212 58.260109 -49.183314 -100.558416 9.786067 -8.292923 14.036478 0.080922 -56.935022 10.066596 -86.665333 87.529773 -92.059070 -11.347735 -21.913516 15.527684 0.065978 0.238188 -0.421471 8.940601 -53.399677 -6.065846 109.796376 77.175618 106.219127 -7.964540 -23.789949 2.503792 0.024182 0.137000 0.018068
